<?xml version="1.0" encoding="iso-8859-1"?>
<!-- Generator: Adobe Illustrator 19.0.0, SVG Export Plug-In . SVG Version: 6.00 Build 0)  -->
<svg version="1.1" id="Capa_1" xmlns="http://www.w3.org/2000/svg" xmlns:xlink="http://www.w3.org/1999/xlink" x="0px" y="0px"
	 viewBox="0 0 512 512" style="enable-background:new 0 0 512 512;" xml:space="preserve">
<path style="fill:#FA9A8E;" d="M182.332,70c0,16.108-13.096,29.167-29.25,29.167S123.832,86.109,123.832,70
	c0-16.108,13.096-29.167,29.25-29.167C169.237,40.833,182.332,53.892,182.332,70z M218.268,0c-8.308,0-15.043,6.716-15.043,15
	s6.735,15,15.043,15s15.043-6.716,15.043-15C233.31,6.716,226.576,0,218.268,0z"/>
<path style="fill:#99CFD7;" d="M402.541,90L402.541,90c0,37.189-19.687,71.616-51.784,90.555l-105.83,62.443
	c-3.356,1.98-6.925,3.53-10.614,4.682v159.297c0,21.498,8.677,42.09,24.074,57.137L295.111,500H143.43l37.005-36.52
	c15.226-15.026,23.793-35.5,23.793-56.861v-158.94c-3.689-1.152-7.258-2.701-10.614-4.682l-105.83-62.443
	C55.687,161.616,36,127.189,36,90l0,0c0-5.523,4.49-10,10.029-10h346.484C398.051,80,402.541,84.477,402.541,90z"/>
<path style="fill:#62A9C3;" d="M123.02,492.257L123.02,492.257c2.048-6.125,7.796-10.257,14.271-10.257h163.96
	c6.475,0,12.223,4.131,14.271,10.257l0,0c3.247,9.713-4.003,19.743-14.271,19.743h-163.96
	C127.023,512,119.773,501.97,123.02,492.257z"/>
<path style="fill:#85BBC8;" d="M250.735,239.571l-5.807,3.427c-7.769,4.584-16.63,7.002-25.657,7.002s-17.888-2.418-25.657-7.002
	l-105.83-62.443C55.687,161.616,36,127.189,36,90l0,0c0-5.523,4.49-10,10.028-10h27.954l0,0l0,0
	c0,37.189,19.687,71.616,51.784,90.555l105.83,62.443C237.483,236.471,243.997,238.694,250.735,239.571z"/>
<path style="fill:#FA9A8E;" d="M365.549,170c-4.576,3.897-9.512,7.439-14.793,10.555l-105.83,62.443
	c-7.769,4.584-16.63,7.002-25.657,7.002s-17.888-2.418-25.657-7.002l-105.83-62.443c-23.205-13.692-39.917-35.481-47.4-60.555
	h102.991c18.795,0,37.212,5.267,53.151,15.2l31.449,19.6c15.938,9.933,34.355,15.2,53.151,15.2H365.549z"/>
<path style="fill:#FA7C72;" d="M250.735,239.571l-5.807,3.427c-7.769,4.584-16.63,7.002-25.657,7.002s-17.888-2.418-25.657-7.002
	l-105.83-62.443c-23.205-13.692-39.917-35.481-47.4-60.555h41.544c8.588,20.827,23.781,38.719,43.839,50.555l105.83,62.443
	C237.483,236.471,243.997,238.694,250.735,239.571z"/>
<path style="fill:#FA6360;" d="M163.111,165c0,8.284-6.735,15-15.043,15s-15.043-6.716-15.043-15s6.735-15,15.043-15
	C156.376,150,163.111,156.716,163.111,165z M218.268,130c-8.308,0-15.043,6.716-15.043,15s6.735,15,15.043,15
	s15.043-6.716,15.043-15S226.576,130,218.268,130z"/>
<path style="fill:#77BD63;" d="M476,360c0,44.183-35.817,80-80,80h-30.313v-30c0-44.183,35.817-80,80-80H476V360z"/>
<path style="fill:#B5EC93;" d="M395.97,282.415c31.335,31.246,31.335,81.924,0,113.169l-21.257,21.197l-21.258-21.197
	c-31.335-31.246-31.335-81.924,0-113.169l21.258-21.197L395.97,282.415z"/>
<path style="fill:#FFC261;" d="M423.852,417c0,52.467-42.654,95-95.271,95s-95.271-42.533-95.271-95s42.654-95,95.271-95
	S423.852,364.533,423.852,417z"/>
<path style="fill:#FA7C72;" d="M393.766,417c0,35.899-29.184,65-65.185,65s-65.185-29.101-65.185-65s29.184-65,65.185-65
	S393.766,381.101,393.766,417z"/>
<path style="fill:#DC5B4D;" d="M343.624,417l44.798,25.791c-2.011,4.632-4.539,8.989-7.526,12.988l-44.794-25.788v51.566
	c-2.469,0.283-4.976,0.444-7.521,0.444c-2.545,0-5.052-0.161-7.521-0.444V429.99l-44.794,25.788
	c-2.986-3.999-5.515-8.355-7.526-12.988L313.539,417l-44.798-25.791c2.011-4.633,4.539-8.989,7.525-12.988l44.794,25.788v-51.566
	c2.469-0.283,4.976-0.444,7.521-0.444c2.545,0,5.052,0.161,7.521,0.444v51.566l44.794-25.788c2.986,3.999,5.515,8.355,7.526,12.988
	L343.624,417z"/>
<g>
</g>
<g>
</g>
<g>
</g>
<g>
</g>
<g>
</g>
<g>
</g>
<g>
</g>
<g>
</g>
<g>
</g>
<g>
</g>
<g>
</g>
<g>
</g>
<g>
</g>
<g>
</g>
<g>
</g>
</svg>
